name C:\Users\u0150099\Documents\master_thesis\3dpredictsim\Results\debug\Fal_s1_mtj_sc_cspx10_oy_TrackAnkleQSubtQ_MTc_MTPm_k1_d01_MTJm_nl_MG_exp_table_d01_PF_Gefen2002_ls146_FDB_ig21.mot
datacolumns 130
datarows 4
range 0.54307185 0.57565616
endheader
time	pelvis_tilt	pelvis_list	pelvis_rotation	pelvis_tx	pelvis_ty	pelvis_tz	hip_flexion_l	hip_adduction_l	hip_rotation_l	hip_flexion_r	hip_adduction_r	hip_rotation_r	knee_angle_l	knee_angle_r	ankle_angle_l	ankle_angle_r	subtalar_angle_l	subtalar_angle_r	mtj_angle_l	mtj_angle_r	mtp_angle_l	mtp_angle_r	lumbar_extension	lumbar_bending	lumbar_rotation	arm_flex_l	arm_add_l	arm_rot_l	arm_flex_r	arm_add_r	arm_rot_r	elbow_flex_l	elbow_flex_r	pro_sup_l	pro_sup_r	glut_med1_l/activation	glut_med2_l/activation	glut_med3_l/activation	glut_min1_l/activation	glut_min2_l/activation	glut_min3_l/activation	semimem_l/activation	semiten_l/activation	bifemlh_l/activation	bifemsh_l/activation	sar_l/activation	add_long_l/activation	add_brev_l/activation	add_mag1_l/activation	add_mag2_l/activation	add_mag3_l/activation	tfl_l/activation	pect_l/activation	grac_l/activation	glut_max1_l/activation	glut_max2_l/activation	glut_max3_l/activation	iliacus_l/activation	psoas_l/activation	quad_fem_l/activation	gem_l/activation	peri_l/activation	rect_fem_l/activation	vas_med_l/activation	vas_int_l/activation	vas_lat_l/activation	med_gas_l/activation	lat_gas_l/activation	soleus_l/activation	tib_post_l/activation	flex_dig_l/activation	flex_hal_l/activation	tib_ant_l/activation	per_brev_l/activation	per_long_l/activation	per_tert_l/activation	ext_dig_l/activation	ext_hal_l/activation	FDB_l/activation	ercspn_l/activation	intobl_l/activation	extobl_l/activation	glut_med1_r/activation	glut_med2_r/activation	glut_med3_r/activation	glut_min1_r/activation	glut_min2_r/activation	glut_min3_r/activation	semimem_r/activation	semiten_r/activation	bifemlh_r/activation	bifemsh_r/activation	sar_r/activation	add_long_r/activation	add_brev_r/activation	add_mag1_r/activation	add_mag2_r/activation	add_mag3_r/activation	tfl_r/activation	pect_r/activation	grac_r/activation	glut_max1_r/activation	glut_max2_r/activation	glut_max3_r/activation	iliacus_r/activation	psoas_r/activation	quad_fem_r/activation	gem_r/activation	peri_r/activation	rect_fem_r/activation	vas_med_r/activation	vas_int_r/activation	vas_lat_r/activation	med_gas_r/activation	lat_gas_r/activation	soleus_r/activation	tib_post_r/activation	flex_dig_r/activation	flex_hal_r/activation	tib_ant_r/activation	per_brev_r/activation	per_long_r/activation	per_tert_r/activation	ext_dig_r/activation	ext_hal_r/activation	FDB_r/activation	ercspn_r/activation	intobl_r/activation	extobl_r/activation	
          0.54307185	         -2.88863509	          1.97182730	         -7.10895287	          0.72228556	          0.90151338	          0.00867118	         29.47999161	          1.93199001	         -7.26498394	        -10.05356753	          0.65725614	          1.70640648	         -9.96242448	        -22.81990841	         -0.97257908	          3.87933433	          1.37725125	          3.88337763	          7.55672776	          7.60687857	          5.48531242	         18.26343153	         -5.71708763	         -1.06000351	          1.56513253	         -5.39580869	        -13.54482431	          8.81728655	          8.93213456	        -13.62982759	         19.32721543	         18.12542101	         43.86012242	         86.51662706	         86.51662706	          0.05000000	          0.05000001	          0.05905118	          0.05000000	          0.05000000	          0.05000005	          0.46086628	          0.06974087	          0.06974089	          0.06974087	          0.09000009	          0.10495947	          0.12727555	          0.08339336	          0.05905126	          0.12478361	          0.05000005	          0.06171904	          0.10641596	          0.05905116	          0.05905118	          0.14985243	          0.11471838	          0.12471592	          0.28566667	          0.13898031	          0.07463247	          0.05000000	          0.05000000	          0.05000000	          0.05000000	          0.06753773	          0.06472488	          0.05393253	          0.06974087	          0.06126901	          0.08701390	          0.68145011	          0.06193938	          0.05359866	          0.29337303	          0.85284730	          0.38381006	          0.52096574	          0.05005598	          0.12670370	          0.07642730	          0.20067077	          0.05905122	          0.05000001	          0.41735509	          0.22375695	          0.10021329	          0.05000007	          0.05000000	          0.05000000	          0.05000001	          0.09143892	          0.05000000	          0.05000000	          0.05000000	          0.05000001	          0.05000001	          0.66246051	          0.05000000	          0.05000000	          0.05000024	          0.05000008	          0.05000001	          0.12342239	          0.50649503	          0.05000000	          0.05000001	          0.05000000	          0.68779633	          0.15993976	          0.16934504	          0.13706629	          0.31453728	          0.63647227	          0.10124835	          0.78231126	          0.83145685	          0.99801778	          0.05000000	          0.35525538	          0.53348180	          0.05000000	          0.05000000	          0.05000004	          0.92227407	          0.05000000	          0.05000000	          0.05000005	
          0.55393328	         -2.89500675	          2.09540818	         -7.40615831	          0.73951942	          0.90007925	          0.00809279	         29.46985132	          2.22409246	         -7.48112820	        -11.29627907	          0.14432979	          1.47933834	        -10.64051043	        -22.20307260	         -1.37021950	          2.36607769	          1.40584136	          4.21242056	          7.60851807	          7.43784610	          5.36380051	         20.25849886	         -5.55765632	         -1.19906820	          1.74111327	         -6.39087832	        -13.50672385	          8.26962875	          8.71976096	        -13.58111234	         19.37243746	         18.08562314	         44.97234934	         86.51662706	         86.51662706	          0.05886863	          0.05000020	          0.05000000	          0.05905119	          0.05905118	          0.05000014	          0.41018633	          0.05905119	          0.05905121	          0.05905119	          0.07620832	          0.20068531	          0.10776715	          0.07061108	          0.05000007	          0.13734648	          0.05000001	          0.08168236	          0.09010484	          0.05000000	          0.05000000	          0.18108878	          0.13568200	          0.13568202	          0.51917425	          0.34340766	          0.14234180	          0.05000000	          0.05000000	          0.05000000	          0.05000000	          0.05718574	          0.05480404	          0.05000000	          0.05905119	          0.05187788	          0.07367666	          0.65087020	          0.06974087	          0.06974087	          0.24840566	          0.87344678	          0.34302419	          0.72215334	          0.05000000	          0.10728292	          0.06974087	          0.16991254	          0.05000002	          0.05000000	          0.35338411	          0.18946013	          0.08485289	          0.05000008	          0.05000000	          0.05000000	          0.05000000	          0.07742344	          0.05000006	          0.05000005	          0.05000002	          0.05000008	          0.05000006	          0.56092054	          0.05000188	          0.05000001	          0.05000006	          0.05000003	          0.05000002	          0.10450457	          0.49374253	          0.05000000	          0.05000000	          0.05000000	          0.59330325	          0.15582348	          0.16075718	          0.13060537	          0.30644969	          0.60937842	          0.10470154	          0.66669135	          0.86714262	          0.99885029	          0.09344515	          0.42412660	          0.50462427	          0.05000000	          0.05000000	          0.05000003	          0.78091057	          0.05000000	          0.05295154	          0.08236561	
          0.56479472	         -2.90012491	          2.22923266	         -7.66628284	          0.75705233	          0.89873951	          0.00744934	         29.53266613	          2.48393367	         -7.71640222	        -12.50982796	         -0.38083660	          1.22217410	        -12.18731319	        -21.61007535	         -2.13910511	          0.60665910	          1.27714760	          4.48953402	          7.60489168	          7.25656462	          5.20788563	         22.40357900	         -5.38991243	         -1.34918977	          1.91337852	         -7.38455193	        -13.47636730	          7.94638542	          8.42788032	        -13.53645508	         19.38097464	         18.06435004	         46.03015296	         86.51662706	         86.51662706	          0.05000000	          0.05000000	          0.08468576	          0.05000000	          0.05000000	          0.05000000	          0.34731416	          0.05000000	          0.05000001	          0.05000000	          0.06452734	          0.17081913	          0.23002736	          0.18357240	          0.05905124	          0.19551210	          0.06974077	          0.09709458	          0.07629383	          0.05000008	          0.05905119	          0.26263619	          0.11488506	          0.11488508	          0.70076278	          0.29077113	          0.12052407	          0.06974087	          0.05905120	          0.05905120	          0.05905119	          0.06098471	          0.05905126	          0.05905119	          0.05000000	          0.05905408	          0.06974086	          0.79749977	          0.05905119	          0.05905119	          0.50952830	          0.92659734	          0.56475149	          0.61146376	          0.05000000	          0.09083890	          0.05905119	          0.14386884	          0.05905115	          0.05905120	          0.29921841	          0.16042023	          0.07184689	          0.05000018	          0.05000002	          0.05000004	          0.05000000	          0.06555621	          0.17616714	          0.07913804	          0.14574033	          0.05905773	          0.07467650	          0.47494430	          0.05000005	          0.05000010	          0.05207717	          0.05905113	          0.05905127	          0.08848641	          0.48469034	          0.06061544	          0.05905163	          0.05905121	          0.54337434	          0.16226861	          0.16229772	          0.13436095	          0.30432719	          0.59137846	          0.08930494	          0.56450282	          0.92294070	          0.99933315	          0.27074232	          0.48244747	          0.46952915	          0.05000000	          0.05000000	          0.05000000	          0.66121485	          0.05000002	          0.05905120	          0.06974087	
          0.57565616	         -2.90405706	          2.37778269	         -7.88987796	          0.77482871	          0.89749806	          0.00678308	         29.59148658	          2.67636080	         -7.87601319	        -13.66959518	         -0.90930978	          0.96389138	        -14.20256071	        -21.08602036	         -2.73976013	         -1.35049122	          1.01381780	          4.69570155	          7.73412623	          7.07117655	          5.00223478	         24.52218774	         -5.21663222	         -1.51861916	          2.08068383	         -8.35728683	        -13.45824828	          7.81516595	          8.06147747	        -13.50296080	         19.38686085	         18.03374101	         47.04981049	         86.51662706	         86.51662706	          0.28974325	          0.25503943	          0.30821132	          0.22139249	          0.21167541	          0.23521381	          0.29407884	          0.19473974	          0.13101277	          0.14735834	          0.11487470	          0.14463647	          0.19476943	          0.15543496	          0.05000004	          0.24581623	          0.05905112	          0.08221224	          0.25710952	          0.05000000	          0.05000000	          0.30015703	          0.09727581	          0.09727583	          0.59335188	          0.24620258	          0.15993399	          0.05905119	          0.05000000	          0.05000000	          0.05000000	          0.05163715	          0.05000005	          0.05000000	          0.18679533	          0.05000245	          0.05905119	          0.75611376	          0.05000000	          0.05000000	          0.43142927	          0.92088447	          0.47818802	          0.77464348	          0.06075108	          0.16024366	          0.05000000	          0.12181704	          0.05000000	          0.05000000	          0.25335508	          0.13583148	          0.06083441	          0.05000004	          0.05000000	          0.05000000	          0.05000000	          0.05905117	          0.21346516	          0.23562708	          0.12340169	          0.05000557	          0.06323032	          0.50717826	          0.06974085	          0.05000002	          0.05000011	          0.05000007	          0.05000009	          0.07492347	          0.64643783	          0.05132448	          0.05000037	          0.05000002	          0.46008749	          0.13739655	          0.13742120	          0.11376650	          0.28703547	          0.53865856	          0.08518673	          0.47797746	          0.95530446	          0.99961321	          0.50987846	          0.43003207	          0.41067671	          0.44898654	          0.08432766	          0.05000000	          0.55986574	          0.05989182	          0.05000000	          0.05905119	
